<?xml version="1.0" encoding="UTF-8"?>
<svg version="1.1" xmlns="http://www.w3.org/2000/svg" width="348" height="335">
<path d="M0 0 C1.27816589 0.00273422 1.27816589 0.00273422 2.58215332 0.00552368 C40.01362731 0.13967571 80.6297816 4.82853434 108.6171875 32.46484375 C120.54725706 45.27278635 124.76064213 58.14832437 124.875 75.375 C124.88515137 76.46296875 124.89530273 77.5509375 124.90576172 78.671875 C124.77352585 91.02382253 121.34219511 101.44315139 116.3125 112.625 C115.82531494 113.71659424 115.33812988 114.80818848 114.83618164 115.93286133 C110.95350981 124.4793005 106.68389853 132.53312402 101.4375 140.3125 C101.04208008 140.90562988 100.64666016 141.49875977 100.23925781 142.10986328 C95.24124173 149.54347086 89.87422887 156.33253607 83.734375 162.86328125 C81.74641246 164.98309844 79.86615364 167.1489453 78 169.375 C63.30743923 186.15185427 39.29246432 204.78966415 16.3671875 206.75390625 C9.27454151 206.96904522 5.16798462 206.7925465 -0.5625 202.3125 C-9.67322938 192.42085096 -7.92169639 175.79124878 -7.5625 163.3125 C-8.3978125 163.23902344 -8.3978125 163.23902344 -9.25 163.1640625 C-28.30494229 161.29719315 -46.39899004 153.21285063 -60.5625 140.3125 C-61.16964844 139.796875 -61.77679688 139.28125 -62.40234375 138.75 C-78.15519803 124.46169679 -86.6271395 100.08151514 -87.72363281 79.25146484 C-87.7694416 75.73004739 -87.79774947 72.20919007 -87.8125 68.6875 C-87.833125 67.47964844 -87.85375 66.27179688 -87.875 65.02734375 C-87.94610633 48.51289937 -83.34731889 34.49462255 -71.7578125 22.484375 C-71.03335938 21.76765625 -70.30890625 21.0509375 -69.5625 20.3125 C-69.04429688 19.76078125 -68.52609375 19.2090625 -67.9921875 18.640625 C-58.6072613 9.5013775 -44.12142696 4.70841391 -31.5625 2.3125 C-30.67232178 2.13662354 -29.78214355 1.96074707 -28.86499023 1.77954102 C-19.23238391 0.07306353 -9.74861626 -0.04320566 0 0 Z M-5.5625 47.3125 C-7.4744546 51.03360453 -7.81871525 54.14293825 -7.8371582 58.29272461 C-7.84669022 59.47422592 -7.85622223 60.65572723 -7.86604309 61.87303162 C-7.86513168 63.14082962 -7.86422028 64.40862762 -7.86328125 65.71484375 C-7.86756638 67.02530167 -7.8718515 68.33575958 -7.87626648 69.68592834 C-7.88371265 72.45561781 -7.88344909 75.22517978 -7.87817383 77.99487305 C-7.87238055 81.53334772 -7.88931386 85.07129871 -7.9125185 88.60968685 C-7.93084569 91.99892728 -7.92706961 95.3880541 -7.92578125 98.77734375 C-7.934991 100.04311752 -7.94420074 101.3088913 -7.95368958 102.61302185 C-7.94746078 103.79767532 -7.94123199 104.9823288 -7.93481445 106.20288086 C-7.93544388 107.24036972 -7.9360733 108.27785858 -7.9367218 109.3467865 C-7.49022792 112.88525734 -6.41078563 115.2749519 -4.5625 118.3125 C-1.8125 120.0625 -1.8125 120.0625 1.4375 120.3125 C4.95951265 119.16107279 6.87067241 118.4156772 8.59220886 115.06517029 C9.52826623 112.01692196 9.69799555 109.51896428 9.7121582 106.33227539 C9.72169022 105.15077408 9.73122223 103.96927277 9.74104309 102.75196838 C9.73967598 100.85027138 9.73967598 100.85027138 9.73828125 98.91015625 C9.74256638 97.59969833 9.7468515 96.28924042 9.75126648 94.93907166 C9.75871265 92.16938219 9.75844909 89.39982022 9.75317383 86.63012695 C9.74738055 83.09165228 9.76431386 79.55370129 9.7875185 76.01531315 C9.80584569 72.62607272 9.80206961 69.2369459 9.80078125 65.84765625 C9.81459587 63.94899559 9.81459587 63.94899559 9.82868958 62.01197815 C9.81934639 60.23499794 9.81934639 60.23499794 9.80981445 58.42211914 C9.81044388 57.38463028 9.8110733 56.34714142 9.8117218 55.2782135 C9.36522792 51.73974266 8.28578563 49.3500481 6.4375 46.3125 C1.60646761 43.62859311 -1.1037926 44.17113797 -5.5625 47.3125 Z M58.4375 50.3125 C56.67934564 53.80415855 56.1828403 56.67542624 56.1628418 60.55834961 C56.15330978 61.57968491 56.14377777 62.6010202 56.13395691 63.65330505 C56.13486832 64.74611282 56.13577972 65.83892059 56.13671875 66.96484375 C56.13243362 68.09773331 56.1281485 69.23062286 56.12373352 70.39784241 C56.1179971 72.79085625 56.11748488 75.18388752 56.12182617 77.5769043 C56.1249855 81.23321341 56.10151949 84.88871278 56.07617188 88.54492188 C56.07389873 90.87239481 56.07319546 93.19986993 56.07421875 95.52734375 C56.065009 96.61812729 56.05579926 97.70891083 56.04631042 98.83274841 C56.07989135 104.35600932 56.15417988 108.62294323 59.4375 113.3125 C62.1875 115.0625 62.1875 115.0625 65.4375 115.3125 C68.75454343 114.4040032 68.75454343 114.4040032 71.4375 112.3125 C73.19565436 108.82084145 73.6921597 105.94957376 73.7121582 102.06665039 C73.72169022 101.04531509 73.73122223 100.0239798 73.74104309 98.97169495 C73.74013168 97.87888718 73.73922028 96.78607941 73.73828125 95.66015625 C73.74256638 94.52726669 73.7468515 93.39437714 73.75126648 92.22715759 C73.7570029 89.83414375 73.75751512 87.44111248 73.75317383 85.0480957 C73.7500145 81.39178659 73.77348051 77.73628722 73.79882812 74.08007812 C73.80110127 71.75260519 73.80180454 69.42513007 73.80078125 67.09765625 C73.809991 66.00687271 73.81920074 64.91608917 73.82868958 63.79225159 C73.79510865 58.26899068 73.72082012 54.00205677 70.4375 49.3125 C65.60646761 46.62859311 62.8962074 47.17113797 58.4375 50.3125 Z M26.4375 60.3125 C23.28484535 66.19794485 24.10297335 72.96757459 24.12182617 79.45922852 C24.12498557 81.73958164 24.10150462 84.01863516 24.07617188 86.29882812 C24.07389843 87.76041504 24.0731956 89.22200542 24.07421875 90.68359375 C24.07123779 92.00286865 24.06825684 93.32214355 24.06518555 94.68139648 C24.4660801 98.59123566 25.3490719 101.00142694 27.4375 104.3125 C30.1875 106.0625 30.1875 106.0625 33.4375 106.3125 C36.89759419 105.18131536 38.8426844 104.4229148 40.59057617 101.15991211 C42.22454291 95.66641136 41.76969968 89.85617239 41.75317383 84.16577148 C41.75001443 81.88541836 41.77349538 79.60636484 41.79882812 77.32617188 C41.80110157 75.86458496 41.8018044 74.40299458 41.80078125 72.94140625 C41.80376221 71.62213135 41.80674316 70.30285645 41.80981445 68.94360352 C41.4089199 65.03376434 40.5259281 62.62357306 38.4375 59.3125 C33.60646761 56.62859311 30.8962074 57.17113797 26.4375 60.3125 Z M-37.5625 65.3125 C-40.17880426 70.53790718 -39.89380167 75.53053126 -39.875 81.25 C-39.89111328 82.22646484 -39.90722656 83.20292969 -39.92382812 84.20898438 C-39.92750049 89.62572653 -39.73884611 93.69780849 -36.5625 98.3125 C-33.8125 100.0625 -33.8125 100.0625 -30.5625 100.3125 C-27.24545657 99.4040032 -27.24545657 99.4040032 -24.5625 97.3125 C-21.94619574 92.08709282 -22.23119833 87.09446874 -22.25 81.375 C-22.23388672 80.39853516 -22.21777344 79.42207031 -22.20117188 78.41601562 C-22.19749951 72.99927347 -22.38615389 68.92719151 -25.5625 64.3125 C-30.39353239 61.62859311 -33.1037926 62.17113797 -37.5625 65.3125 Z " fill="#AA58AE" transform="translate(155.5625,63.6875)"/>
<path d="M0 0 C2.66567054 0.0108511 5.33068603 -0.00002146 7.99633789 -0.01269531 C9.70141749 -0.01137577 11.40649669 -0.00881764 13.11157227 -0.00488281 C14.29904808 -0.01095551 14.29904808 -0.01095551 15.51051331 -0.01715088 C19.3363781 0.01550713 22.33533137 0.09392245 25.57641602 2.26074219 C24.86098633 2.298125 24.14555664 2.33550781 23.40844727 2.37402344 C11.75185754 3.14308693 -0.17763105 4.4861163 -9.42358398 12.26074219 C-11.75907012 15.1011983 -13.62089793 18.0634105 -15.42358398 21.26074219 C-16.41358398 22.74574219 -16.41358398 22.74574219 -17.42358398 24.26074219 C-19.5750137 30.9507003 -19.75771954 37.26813054 -19.73608398 44.26074219 C-19.75219727 45.30230469 -19.76831055 46.34386719 -19.78491211 47.41699219 C-19.78895233 53.81669394 -18.93553556 58.39303102 -16.42358398 64.26074219 C-16.01733398 66.72949219 -16.01733398 66.72949219 -15.92358398 68.76074219 C-15.55018151 73.35279812 -14.11709557 76.99014775 -12.42358398 81.26074219 C-12.42358398 82.25074219 -12.42358398 83.24074219 -12.42358398 84.26074219 C-11.76358398 84.26074219 -11.10358398 84.26074219 -10.42358398 84.26074219 C-10.29081055 85.11539063 -10.15803711 85.97003906 -10.02124023 86.85058594 C-9.84463867 87.9553125 -9.66803711 89.06003906 -9.48608398 90.19824219 C-9.31206055 91.30039063 -9.13803711 92.40253906 -8.95874023 93.53808594 C-8.70513263 96.16501148 -8.70513263 96.16501148 -7.42358398 97.26074219 C-7.33688966 98.74946078 -7.31654905 100.24218718 -7.32592773 101.73339844 C-7.33076172 103.08208008 -7.33076172 103.08208008 -7.33569336 104.45800781 C-7.34826172 105.87629883 -7.34826172 105.87629883 -7.36108398 107.32324219 C-7.3655957 108.27263672 -7.37010742 109.22203125 -7.37475586 110.20019531 C-7.38658288 112.55377284 -7.40306373 114.90722696 -7.42358398 117.26074219 C-4.16827591 118.94501028 -0.91887692 120.14860353 2.57641602 121.26074219 C1.99891602 121.50824219 1.42141602 121.75574219 0.82641602 122.01074219 C-1.72388369 123.42757535 -3.441441 125.13701756 -5.42358398 127.26074219 C-5.09358398 127.92074219 -4.76358398 128.58074219 -4.42358398 129.26074219 C-4.57045654 129.99059326 -4.7173291 130.72044434 -4.86865234 131.47241211 C-5.51263591 134.70819577 -5.43792947 137.57833528 -5.30249023 140.87402344 C-5.25415039 142.12119141 -5.20581055 143.36835938 -5.15600586 144.65332031 C-5.07189453 146.59368164 -5.07189453 146.59368164 -4.98608398 148.57324219 C-4.93387695 149.88615234 -4.88166992 151.1990625 -4.82788086 152.55175781 C-4.69841759 155.78833957 -4.56345856 159.02459639 -4.42358398 162.26074219 C-3.10358398 162.26074219 -1.78358398 162.26074219 -0.42358398 162.26074219 C-0.42358398 162.92074219 -0.42358398 163.58074219 -0.42358398 164.26074219 C0.23641602 164.26074219 0.89641602 164.26074219 1.57641602 164.26074219 C1.90641602 164.92074219 2.23641602 165.58074219 2.57641602 166.26074219 C2.90641602 165.60074219 3.23641602 164.94074219 3.57641602 164.26074219 C4.58841064 164.31403687 4.58841064 164.31403687 5.62084961 164.3684082 C8.73069637 164.52775792 11.84099415 164.67556096 14.95141602 164.82324219 C16.01231445 164.87931641 17.07321289 164.93539062 18.16625977 164.99316406 C24.74582052 165.29590459 31.04603656 165.13761616 37.57641602 164.26074219 C37.24641602 165.25074219 36.91641602 166.24074219 36.57641602 167.26074219 C37.56641602 167.26074219 38.55641602 167.26074219 39.57641602 167.26074219 C40.23641602 165.94074219 40.89641602 164.62074219 41.57641602 163.26074219 C42.52516602 163.30199219 43.47391602 163.34324219 44.45141602 163.38574219 C47.67886457 163.61048037 47.67886457 163.61048037 49.57641602 161.26074219 C53.83297265 159.67690716 58.20206477 158.47583976 62.57641602 157.26074219 C63.33954102 157.03386719 64.10266602 156.80699219 64.88891602 156.57324219 C66.57641602 156.26074219 66.57641602 156.26074219 68.57641602 157.26074219 C69.29829102 156.29136719 70.02016602 155.32199219 70.76391602 154.32324219 C73.21549496 151.36753574 74.7249195 150.74217925 78.57641602 150.26074219 C81.62608516 148.69680929 83.9606643 146.93253011 86.57641602 144.69824219 C89.27313202 142.50716043 91.30895374 141.31786234 94.57641602 140.26074219 C95.50706734 142.8665659 95.72559008 143.90272442 94.63891602 146.51074219 C94.28829102 147.08824219 93.93766602 147.66574219 93.57641602 148.26074219 C94.56641602 147.93074219 95.55641602 147.60074219 96.57641602 147.26074219 C85.85998004 171.17938538 54.8174503 194.35018858 31.01953125 203.58959961 C23.07290469 206.42554358 14.95920075 207.68238404 6.57641602 206.26074219 C0.73153298 202.91586244 -2.29729241 199.76529752 -4.33374023 193.42871094 C-6.85079256 183.37220887 -6.72003192 173.5595631 -6.42358398 163.26074219 C-7.25889648 163.18726563 -7.25889648 163.18726563 -8.11108398 163.11230469 C-27.16602627 161.24543534 -45.26007402 153.16109282 -59.42358398 140.26074219 C-60.03073242 139.74511719 -60.63788086 139.22949219 -61.26342773 138.69824219 C-77.01628202 124.40993898 -85.48822348 100.02975733 -86.5847168 79.19970703 C-86.63052559 75.67828958 -86.65883345 72.15743226 -86.67358398 68.63574219 C-86.69420898 67.42789063 -86.71483398 66.22003906 -86.73608398 64.97558594 C-86.80719031 48.46114156 -82.20840288 34.44286474 -70.61889648 22.43261719 C-69.89444336 21.71589844 -69.16999023 20.99917969 -68.42358398 20.26074219 C-67.90538086 19.70902344 -67.38717773 19.15730469 -66.85327148 18.58886719 C-57.46445369 9.44582997 -42.984791 4.66507485 -30.42358398 2.26074219 C-29.55080811 2.08414063 -28.67803223 1.90753906 -27.77880859 1.72558594 C-18.51353644 0.05699378 -9.38108495 -0.04557754 0 0 Z M-36.42358398 65.26074219 C-39.03988825 70.48614937 -38.75488566 75.47877345 -38.73608398 81.19824219 C-38.75219727 82.17470703 -38.76831055 83.15117187 -38.78491211 84.15722656 C-38.78858448 89.57396872 -38.59993009 93.64605068 -35.42358398 98.26074219 C-32.67358398 100.01074219 -32.67358398 100.01074219 -29.42358398 100.26074219 C-26.10654056 99.35224538 -26.10654056 99.35224538 -23.42358398 97.26074219 C-20.80727972 92.035335 -21.09228231 87.04271093 -21.11108398 81.32324219 C-21.0949707 80.34677734 -21.07885742 79.3703125 -21.06225586 78.36425781 C-21.05858349 72.94751565 -21.24723788 68.8754337 -24.42358398 64.26074219 C-29.25461638 61.5768353 -31.96487659 62.11938016 -36.42358398 65.26074219 Z " fill="#9753D9" transform="translate(154.423583984375,63.7392578125)"/>
<path d="M0 0 C1.125 1.75 1.125 1.75 2 4 C1.125 6.25 1.125 6.25 0 8 C0.99 7.67 1.98 7.34 3 7 C-7.71643598 30.91864319 -38.75896572 54.08944639 -62.55688477 63.32885742 C-70.50351132 66.16480139 -78.61721527 67.42164186 -87 66 C-92.61207778 62.80451087 -96.01007577 59.60761048 -97.7578125 53.23828125 C-98.88105421 47.7998008 -98.88105421 47.7998008 -99 45 C-98.34 44.34 -97.68 43.68 -97 43 C-97.28566879 40.64934822 -97.28566879 40.64934822 -98 38 C-99.35970334 31.33745365 -99.35970334 31.33745365 -98 28 C-97.34 27.67 -96.68 27.34 -96 27 C-95.67 26.01 -95.34 25.02 -95 24 C-94.01 24 -93.02 24 -92 24 C-91.67 24.66 -91.34 25.32 -91 26 C-90.67 25.34 -90.34 24.68 -90 24 C-88.98800537 24.05329468 -88.98800537 24.05329468 -87.95556641 24.10766602 C-84.84571965 24.26701573 -81.73542187 24.41481877 -78.625 24.5625 C-77.56410156 24.61857422 -76.50320312 24.67464844 -75.41015625 24.73242188 C-68.8305955 25.0351624 -62.53037945 24.87687397 -56 24 C-56.495 25.485 -56.495 25.485 -57 27 C-56.01 27 -55.02 27 -54 27 C-53.34 25.68 -52.68 24.36 -52 23 C-51.05125 23.04125 -50.1025 23.0825 -49.125 23.125 C-45.89755144 23.34973818 -45.89755144 23.34973818 -44 21 C-39.74344337 19.41616497 -35.37435125 18.21509757 -31 17 C-29.8553125 16.6596875 -29.8553125 16.6596875 -28.6875 16.3125 C-27 16 -27 16 -25 17 C-23.9171875 15.5459375 -23.9171875 15.5459375 -22.8125 14.0625 C-20.36092105 11.10679355 -18.85149652 10.48143706 -15 10 C-11.94775756 8.43474747 -9.57748969 6.64647097 -6.9375 4.4375 C-4.60677917 2.50349761 -2.75265149 1.16458332 0 0 Z " fill="#806FF2" transform="translate(248,204)"/>
<path d="M0 0 C0 2.64 0 5.28 0 8 C2.475 8.495 2.475 8.495 5 9 C5.33 7.68 5.66 6.36 6 5 C7.59376469 7.84189367 8.24510948 10.00851124 8.4375 13.25 C8.85473479 17.93230149 10.27257062 21.64387374 12 26 C12 26.99 12 27.98 12 29 C12.66 29 13.32 29 14 29 C14.19916016 30.28197266 14.19916016 30.28197266 14.40234375 31.58984375 C14.57894531 32.69457031 14.75554687 33.79929688 14.9375 34.9375 C15.11152344 36.03964844 15.28554687 37.14179688 15.46484375 38.27734375 C15.71845136 40.90426929 15.71845136 40.90426929 17 42 C17.08669432 43.4887186 17.10703494 44.981445 17.09765625 46.47265625 C17.09443359 47.37177734 17.09121094 48.27089844 17.08789062 49.19726562 C17.07532227 50.61555664 17.07532227 50.61555664 17.0625 52.0625 C17.05798828 53.01189453 17.05347656 53.96128906 17.04882812 54.93945312 C17.0370011 57.29303065 17.02052025 59.64648477 17 62 C20.25530808 63.68426809 23.50470706 64.88786134 27 66 C26.4225 66.2475 25.845 66.495 25.25 66.75 C22.6997003 68.16683317 20.98214299 69.87627537 19 72 C19.33 72.66 19.66 73.32 20 74 C19.85312744 74.72985107 19.70625488 75.45970215 19.55493164 76.21166992 C18.91094808 79.44745358 18.98565451 82.3175931 19.12109375 85.61328125 C19.16943359 86.86044922 19.21777344 88.10761719 19.26757812 89.39257812 C19.35168945 91.33293945 19.35168945 91.33293945 19.4375 93.3125 C19.51581055 95.28186523 19.51581055 95.28186523 19.59570312 97.29101562 C19.7251664 100.52759739 19.86012542 103.76385421 20 107 C21.32 107 22.64 107 24 107 C23.39816251 109.02045442 22.72693904 111.02111039 22 113 C21.01 113.495 21.01 113.495 20 114 C19.81767236 118.64935477 20.2706018 121.7341511 22 126 C21.625 128.3125 21.625 128.3125 21 130 C20.34 130 19.68 130 19 130 C18.05862745 127.17588235 17.88274618 125.47081968 17.90234375 122.55078125 C17.90556641 121.70322266 17.90878906 120.85566406 17.91210938 119.98242188 C17.92467773 118.66081055 17.92467773 118.66081055 17.9375 117.3125 C17.94201172 116.41982422 17.94652344 115.52714844 17.95117188 114.60742188 C17.96295017 112.40488013 17.97939836 110.20247401 18 108 C16.68644531 107.88011719 15.37289062 107.76023437 14.01953125 107.63671875 C9.41379937 107.12076873 5.11986295 106.14350718 0.6875 104.8125 C-0.03945068 104.59762939 -0.76640137 104.38275879 -1.51538086 104.16137695 C-8.07113756 102.13817335 -14.00969625 99.35872523 -20 96 C-18.25 95.375 -18.25 95.375 -16 95 C-14.65863633 95.65035814 -13.32573022 96.31833909 -12 97 C-9.50790763 97.16671113 -9.50790763 97.16671113 -6.9375 97 C-3.13198741 96.81687759 -2.31182758 96.79211495 1 99 C1.70125 99.33 2.4025 99.66 3.125 100 C5 101 5 101 6 103 C9.79174105 104.95003825 12.7910921 105.08150029 17 105 C16.90638786 99.51874263 16.80027632 94.03792292 16.68261719 88.55712891 C16.6443541 86.69293838 16.60949654 84.8286747 16.578125 82.96435547 C16.53241644 80.28326284 16.47443178 77.60267267 16.4140625 74.921875 C16.40251129 74.08944275 16.39096008 73.2570105 16.37905884 72.39935303 C16.27682387 68.38343095 16.1209611 65.51524781 14 62 C13.875 59.0390625 13.875 59.0390625 14 55.625 C14.14431636 44.95669086 12.78830332 34.98734511 9 25 C8.01 25 7.02 25 6 25 C5.34 25.66 4.68 26.32 4 27 C4 23.04 4 19.08 4 15 C3.34 15 2.68 15 2 15 C1.773125 14.21625 1.54625 13.4325 1.3125 12.625 C0.23573744 9.85385184 0.23573744 9.85385184 -2.25 8.75 C-5.15477241 7.95778934 -8.0189587 7.41595925 -11 7 C-10.34 6.34 -9.68 5.68 -9 5 C-9 4.01 -9 3.02 -9 2 C-2.25 0 -2.25 0 0 0 Z " fill="#B950C6" transform="translate(130,119)"/>
<path d="M0 0 C1.9765625 1.8828125 1.9765625 1.8828125 2.9765625 3.8828125 C-8.0234375 3.8828125 -8.0234375 3.8828125 -11.0234375 2.8828125 C-10.8378125 2.2640625 -10.6521875 1.6453125 -10.4609375 1.0078125 C-9.78657574 -1.15878928 -9.78657574 -1.15878928 -11.0234375 -3.1171875 C-10.6934375 -3.7771875 -10.3634375 -4.4371875 -10.0234375 -5.1171875 C-10.6215625 -5.2615625 -11.2196875 -5.4059375 -11.8359375 -5.5546875 C-13.58494154 -6.0044314 -15.31020773 -6.54611091 -17.0234375 -7.1171875 C-17.0234375 -6.4571875 -17.0234375 -5.7971875 -17.0234375 -5.1171875 C-18.0134375 -5.1171875 -19.0034375 -5.1171875 -20.0234375 -5.1171875 C-20.0234375 -6.7671875 -20.0234375 -8.4171875 -20.0234375 -10.1171875 C-21.2196875 -10.4059375 -22.4159375 -10.6946875 -23.6484375 -10.9921875 C-29.10247709 -12.37476747 -33.9682748 -14.05910436 -38.9609375 -16.6796875 C-43.04812098 -18.77222754 -46.41918921 -19.68282445 -51.0234375 -20.1171875 C-53.38763182 -20.70358215 -55.69301406 -21.40379257 -58.0234375 -22.1171875 C-58.3534375 -21.4571875 -58.6834375 -20.7971875 -59.0234375 -20.1171875 C-59.5184375 -22.0971875 -59.5184375 -22.0971875 -60.0234375 -24.1171875 C-60.7453125 -23.7871875 -61.4671875 -23.4571875 -62.2109375 -23.1171875 C-65.04041177 -22.11115221 -67.05239216 -21.94741348 -70.0234375 -22.1171875 C-70.3534375 -21.4571875 -70.6834375 -20.7971875 -71.0234375 -20.1171875 C-72.0134375 -20.7771875 -73.0034375 -21.4371875 -74.0234375 -22.1171875 C-74.6834375 -22.1171875 -75.3434375 -22.1171875 -76.0234375 -22.1171875 C-76.0234375 -23.1071875 -76.0234375 -24.0971875 -76.0234375 -25.1171875 C-80.83466597 -23.59162784 -80.83466597 -23.59162784 -84.0234375 -20.1171875 C-84.6834375 -20.1171875 -85.3434375 -20.1171875 -86.0234375 -20.1171875 C-86.6834375 -21.1071875 -87.3434375 -22.0971875 -88.0234375 -23.1171875 C-89.6077692 -23.02950502 -91.19097317 -22.92131421 -92.7734375 -22.8046875 C-93.65515625 -22.74667969 -94.536875 -22.68867187 -95.4453125 -22.62890625 C-98.36718907 -22.04895802 -99.71162582 -20.92875422 -102.0234375 -19.1171875 C-103.0134375 -19.1171875 -104.0034375 -19.1171875 -105.0234375 -19.1171875 C-105.3534375 -17.7971875 -105.6834375 -16.4771875 -106.0234375 -15.1171875 C-108.51408638 -14.43011195 -110.40230042 -14.1171875 -113.0234375 -14.1171875 C-116.11829605 -11.79604359 -117.41782175 -8.55779267 -119.0234375 -5.1171875 C-118.3634375 -4.7871875 -117.7034375 -4.4571875 -117.0234375 -4.1171875 C-118.25126953 -3.29154297 -118.25126953 -3.29154297 -119.50390625 -2.44921875 C-122.4121219 0.4589969 -122.42033733 3.04311729 -122.51171875 7.05859375 C-122.47857952 9.43799073 -122.41909045 11.81713804 -122.3359375 14.1953125 C-122.31337891 15.41283203 -122.29082031 16.63035156 -122.26757812 17.88476562 C-122.2087428 20.88536732 -122.1265789 23.88346047 -122.0234375 26.8828125 C-123.0134375 27.3778125 -123.0134375 27.3778125 -124.0234375 27.8828125 C-125.44053485 22.98976265 -125.20762612 18.12679236 -125.2109375 13.0703125 C-125.22318359 12.09771484 -125.23542969 11.12511719 -125.24804688 10.12304688 C-125.26916686 -0.27502607 -122.55964764 -8.79885348 -115.61328125 -16.7265625 C-86.54959766 -42.95673934 -25.55471465 -21.63481742 0 0 Z " fill="#C99B69" transform="translate(260.0234375,92.1171875)"/>
<path d="M0 0 C0.99 0.33 1.98 0.66 3 1 C2.50681505 6.73555833 0.18311525 10.85862644 -2.625 15.75 C-3.07504395 16.5433374 -3.52508789 17.3366748 -3.98876953 18.15405273 C-13.32783081 34.43170051 -13.32783081 34.43170051 -17.1953125 35.74609375 C-17.79085937 35.82988281 -18.38640625 35.91367188 -19 36 C-18.814375 35.21625 -18.62875 34.4325 -18.4375 33.625 C-17.74037734 31.02910225 -17.74037734 31.02910225 -19 29 C-20.44037669 29.93307421 -21.87718985 30.87165077 -23.3125 31.8125 C-24.51326172 32.59560547 -24.51326172 32.59560547 -25.73828125 33.39453125 C-27.98708371 34.89194984 -27.98708371 34.89194984 -29.609375 36.6328125 C-31.71657114 38.7044941 -34.20981428 39.14586151 -37 40 C-39.67591369 41.10184681 -40.99023557 41.98962529 -43 44.125 C-45 46 -45 46 -49 46 C-52.81186907 46.46675948 -54.75965462 46.83976974 -58 49 C-62.01051605 50.45061219 -66.00922338 51.60184468 -70.1875 52.4375 C-70.785625 52.623125 -71.38375 52.80875 -72 53 C-72.33 53.66 -72.66 54.32 -73 55 C-73.99 55 -74.98 55 -76 55 C-76 54.34 -76 53.68 -76 53 C-80.62 53.33 -85.24 53.66 -90 54 C-90 53.01 -90 52.02 -90 51 C-89.14341797 51.03480469 -89.14341797 51.03480469 -88.26953125 51.0703125 C-78.76731473 51.28180858 -69.43718294 50.64045062 -61 46 C-58.125 45.8125 -58.125 45.8125 -56 46 C-55.505 45.01 -55.505 45.01 -55 44 C-53.68 44 -52.36 44 -51 44 C-50.505 43.01 -50.505 43.01 -50 42 C-49.195625 41.7525 -48.39125 41.505 -47.5625 41.25 C-43.44488807 39.80522388 -40.0940109 37.74091817 -36.3984375 35.44921875 C-34 34 -34 34 -30.625 32.375 C-27.83062984 30.9112823 -26.18122511 29.25158721 -24 27 C-19.5 24 -19.5 24 -17 24 C-17 23.34 -17 22.68 -17 22 C-16.34 22 -15.68 22 -15 22 C-14.505 20.515 -14.505 20.515 -14 19 C-13.34 19 -12.68 19 -12 19 C-11.62875 18.13375 -11.62875 18.13375 -11.25 17.25 C-9.46804282 14.04247707 -7.2985891 11.64929455 -4 10 C-4 9.34 -4 8.68 -4 8 C-3.34 8 -2.68 8 -2 8 C-2.495 5.03 -2.495 5.03 -3 2 C-2.01 1.34 -1.02 0.68 0 0 Z " fill="#9F52E2" transform="translate(267,176)"/>
<path d="M0 0 C-1.875 5.75 -1.875 5.75 -3 8 C-3.66 8 -4.32 8 -5 8 C-5.495 7.01 -5.495 7.01 -6 6 C-7.98 6.99 -9.96 7.98 -12 9 C-11.34 9.66 -10.68 10.32 -10 11 C-12.626591 13.91843445 -15.66976339 15.94517315 -19 18 C-19.66 18 -20.32 18 -21 18 C-20.67 19.32 -20.34 20.64 -20 22 C-21.423125 22.12375 -21.423125 22.12375 -22.875 22.25 C-26.10461791 22.65074923 -26.10461791 22.65074923 -27.375 25.0625 C-27.58125 25.701875 -27.7875 26.34125 -28 27 C-27.34 27.33 -26.68 27.66 -26 28 C-27.03094867 30.57737166 -27.5108626 31.76284247 -30.0625 33 C-32.15822156 33.80841088 -32.15822156 33.80841088 -32.6875 35.8125 C-32.790625 36.534375 -32.89375 37.25625 -33 38 C-33.165 38.804375 -33.33 39.60875 -33.5 40.4375 C-33.8450888 42.20608009 -34.17766046 43.97713254 -34.5 45.75 C-35 48 -35 48 -36 49 C-36.04760755 51.16614357 -36.03703163 53.33364982 -36 55.5 C-35.95411912 61.10893813 -36.23426881 66.4484489 -37 72 C-36.01 72.33 -35.02 72.66 -34 73 C-34.01160156 73.58007812 -34.02320312 74.16015625 -34.03515625 74.7578125 C-34.08762174 79.2998246 -33.91751063 83.52713569 -33 88 C-31.35 88 -29.7 88 -28 88 C-28.26041667 89.98567708 -28.52083333 91.97135417 -28.78125 93.95703125 C-29.17926504 97.67420745 -29.15520553 98.7671917 -27 102 C-27.66 102 -28.32 102 -29 102 C-28.59007813 102.67546875 -28.18015625 103.3509375 -27.7578125 104.046875 C-26.94957031 105.38492188 -26.94957031 105.38492188 -26.125 106.75 C-25.59132813 107.63171875 -25.05765625 108.5134375 -24.5078125 109.421875 C-24.01023437 110.27265625 -23.51265625 111.1234375 -23 112 C-22.58492187 112.70640625 -22.16984375 113.4128125 -21.7421875 114.140625 C-21 116 -21 116 -22 119 C-34.01416769 101.27697248 -38.30688386 80.66673409 -38.4375 59.5625 C-38.44765137 58.40202148 -38.45780273 57.24154297 -38.46826172 56.04589844 C-38.28978581 38.45470972 -32.55804306 24.35870904 -20 12 C-19.42378906 11.42507812 -18.84757812 10.85015625 -18.25390625 10.2578125 C-13.76739146 6.10482759 -6.26808178 0 0 0 Z " fill="#6067C6" transform="translate(106,72)"/>
<path d="M0 0 C2.66567054 0.0108511 5.33068603 -0.00002146 7.99633789 -0.01269531 C9.70141749 -0.01137577 11.40649669 -0.00881764 13.11157227 -0.00488281 C14.29904808 -0.01095551 14.29904808 -0.01095551 15.51051331 -0.01715088 C19.3363781 0.01550713 22.33533137 0.09392245 25.57641602 2.26074219 C24.86098633 2.298125 24.14555664 2.33550781 23.40844727 2.37402344 C11.75907277 3.14261089 -0.18790906 4.48068994 -9.42358398 12.26074219 C-11.22667488 14.49550527 -12.73262814 16.72622448 -14.16967773 19.20996094 C-15.39826339 21.21932999 -16.69568047 22.67389202 -18.42358398 24.26074219 C-18.09358398 21.62074219 -17.76358398 18.98074219 -17.42358398 16.26074219 C-18.41358398 15.93074219 -19.40358398 15.60074219 -20.42358398 15.26074219 C-19.90275065 13.30761719 -19.38191732 11.35449219 -18.86108398 9.40136719 C-18.2900905 6.97172358 -18.2900905 6.97172358 -18.42358398 3.26074219 C-19.4715918 3.40382813 -19.4715918 3.40382813 -20.54077148 3.54980469 C-21.45084961 3.66066406 -22.36092773 3.77152344 -23.29858398 3.88574219 C-24.6559668 4.05976562 -24.6559668 4.05976562 -26.04077148 4.23730469 C-26.82709961 4.24503906 -27.61342773 4.25277344 -28.42358398 4.26074219 C-29.08358398 3.60074219 -29.74358398 2.94074219 -30.42358398 2.26074219 C-20.2438775 0.21991965 -10.34573093 -0.05026423 0 0 Z " fill="#BA4DD7" transform="translate(154.423583984375,63.7392578125)"/>
<path d="M0 0 C0.928125 0.165 1.85625 0.33 2.8125 0.5 C5.95621353 1.07748388 5.95621353 1.07748388 9 1 C10.90001676 3.79414229 10.99542768 5.05121003 10.6875 8.5 C10.19007887 11.03232575 9.64045687 13.50386041 9 16 C8.78085938 15.37351562 8.56171875 14.74703125 8.3359375 14.1015625 C6.35418702 8.78200435 6.35418702 8.78200435 2.0625 5.3125 C-1.43041048 4.95608056 -3.04037111 5.10912598 -6 7 C-8.73235591 11.76516647 -8.349787 16.99848161 -8.4140625 22.33203125 C-8.43342865 23.32377853 -8.4527948 24.31552582 -8.4727478 25.33732605 C-8.53238453 28.4956307 -8.57886555 31.6539721 -8.625 34.8125 C-8.6631944 36.95769792 -8.70224698 39.10288075 -8.7421875 41.24804688 C-8.83807292 46.49856362 -8.92316678 51.74917176 -9 57 C-9.33 57 -9.66 57 -10 57 C-10.01981934 55.70787598 -10.03963867 54.41575195 -10.06005859 53.08447266 C-10.13598368 48.30220655 -10.22472078 43.52024995 -10.31738281 38.73828125 C-10.35572685 36.66640319 -10.39057005 34.59445731 -10.421875 32.52246094 C-10.46740809 29.54858113 -10.52542118 26.57517038 -10.5859375 23.6015625 C-10.59748871 22.67131256 -10.60903992 21.74106262 -10.62094116 20.78262329 C-10.64081085 19.92188202 -10.66068054 19.06114075 -10.68115234 18.17431641 C-10.69447601 17.41486725 -10.70779968 16.65541809 -10.7215271 15.87295532 C-10.84617052 13.7568774 -10.84617052 13.7568774 -13 12 C-12.625 9.0625 -12.625 9.0625 -12 6 C-12 5.01 -12 4.02 -12 3 C-11.01 2.34 -10.02 1.68 -9 1 C-8.67 1.99 -8.34 2.98 -8 4 C-5.64828869 3.40138258 -3.3140622 2.73075648 -1 2 C-0.67 1.34 -0.34 0.68 0 0 Z " fill="#A8758A" transform="translate(157,104)"/>
<path d="M0 0 C0.33 0 0.66 0 1 0 C1.14307911 4.07509094 1.28547705 8.15020506 1.42724609 12.2253418 C1.4755617 13.61141604 1.52406285 14.99748382 1.57275391 16.38354492 C1.64274186 18.37677325 1.71200543 20.37002696 1.78125 22.36328125 C1.82314453 23.56251221 1.86503906 24.76174316 1.90820312 25.99731445 C2.0414126 30.35461069 1.64788847 32.98327186 0 37 C0 37.66 0 38.32 0 39 C-1.32 39.66 -2.64 40.32 -4 41 C-4 40.01 -4 39.02 -4 38 C-4.763125 38.495 -5.52625 38.99 -6.3125 39.5 C-9 41 -9 41 -12 41 C-12 40.01 -12 39.02 -12 38 C-12.66 38 -13.32 38 -14 38 C-14.33 38.66 -14.66 39.32 -15 40 C-15 39.34 -15 38.68 -15 38 C-16.98 38.495 -16.98 38.495 -19 39 C-18.67 38.01 -18.34 37.02 -18 36 C-19.32 35.01 -20.64 34.02 -22 33 C-21.25 28.25 -21.25 28.25 -19 26 C-19 26.66 -19 27.32 -19 28 C-18.34 28 -17.68 28 -17 28 C-16.79375 28.78375 -16.5875 29.5675 -16.375 30.375 C-15.19550703 33.24155369 -15.19550703 33.24155369 -12.1875 34.4375 C-8.55579293 35.07838948 -7.0970624 34.97867875 -4 33 C-2.05380891 29.15292825 -1.64027022 25.65851278 -1.3671875 21.38671875 C-1.28339844 20.13955078 -1.19960937 18.89238281 -1.11328125 17.60742188 C-1.03464844 16.31384766 -0.95601562 15.02027344 -0.875 13.6875 C-0.78863281 12.37458984 -0.70226562 11.06167969 -0.61328125 9.70898438 C-0.4014752 6.47305867 -0.19732547 3.23683568 0 0 Z " fill="#983CCF" transform="translate(230,143)"/>
<path d="M0 0 C-1.875 5.75 -1.875 5.75 -3 8 C-3.66 8 -4.32 8 -5 8 C-5.33 7.34 -5.66 6.68 -6 6 C-7.98 6.99 -9.96 7.98 -12 9 C-11.34 9.66 -10.68 10.32 -10 11 C-12.626591 13.91843445 -15.66976339 15.94517315 -19 18 C-19.66 18 -20.32 18 -21 18 C-20.67 19.32 -20.34 20.64 -20 22 C-21.423125 22.12375 -21.423125 22.12375 -22.875 22.25 C-26.10461791 22.65074923 -26.10461791 22.65074923 -27.375 25.0625 C-27.58125 25.701875 -27.7875 26.34125 -28 27 C-27.34 27.33 -26.68 27.66 -26 28 C-26.75 29.9375 -26.75 29.9375 -28 32 C-30.078125 32.62890625 -30.078125 32.62890625 -32 33 C-31.04075283 25.85526247 -28.75617601 21.3640281 -24 16 C-23.44570312 15.34128906 -22.89140625 14.68257812 -22.3203125 14.00390625 C-17.57636806 8.78149531 -7.50864531 0 0 0 Z " fill="#635ED9" transform="translate(106,72)"/>
<path d="M0 0 C2.07856819 3.11785229 2.24595366 3.75334774 2.21118164 7.28100586 C2.20780289 8.1429808 2.20442413 9.00495575 2.20094299 9.89305115 C2.18748337 10.82424271 2.17402374 11.75543427 2.16015625 12.71484375 C2.15495468 13.68096085 2.14975311 14.64707794 2.14439392 15.64247131 C2.12656685 18.7409661 2.0954588 21.83913204 2.0625 24.9375 C2.02576496 28.98825708 1.99607064 33.03898825 1.97265625 37.08984375 C1.96561676 38.05860443 1.95857727 39.02736511 1.95132446 40.02548218 C1.93139544 46.00528533 2.16911691 51.86014643 2.97436523 57.79516602 C3.00490096 60.42152949 2.39808253 61.79904024 1 64 C-2.43879096 66.54725256 -5.84919103 66.29128484 -10 66 C-13.13941041 65.00109669 -15.23990297 63.84006469 -18 62 C-18.34057617 59.93701172 -18.34057617 59.93701172 -18.29296875 57.4296875 C-18.28330078 56.53378906 -18.27363281 55.63789063 -18.26367188 54.71484375 C-18.23853516 53.77769531 -18.21339844 52.84054688 -18.1875 51.875 C-18.17396484 50.93011719 -18.16042969 49.98523438 -18.14648438 49.01171875 C-18.11106306 46.67391221 -18.06167271 44.33723763 -18 42 C-17.67 42 -17.34 42 -17 42 C-16.95101562 43.02480469 -16.90203125 44.04960937 -16.8515625 45.10546875 C-16.77648929 46.4661706 -16.70094345 47.82684644 -16.625 49.1875 C-16.5940625 49.86103516 -16.563125 50.53457031 -16.53125 51.22851562 C-16.30021823 55.17530831 -15.89362263 58.4990757 -14 62 C-10.72371171 63.67454735 -8.86884099 64.17771748 -5.25 63.4375 C-2.35609474 61.58861608 -2.02858477 60.24338165 -1 57 C-0.67700314 54.19464093 -0.67700314 54.19464093 -0.68115234 51.19995117 C-0.66128265 50.05914597 -0.64141296 48.91834076 -0.62094116 47.7429657 C-0.60938995 46.52196671 -0.59783875 45.30096771 -0.5859375 44.04296875 C-0.56657135 42.78486893 -0.5472052 41.5267691 -0.5272522 40.23054504 C-0.47766923 36.89825681 -0.43636902 33.56607669 -0.39910889 30.23364258 C-0.35898376 26.82818761 -0.3079304 23.4228981 -0.2578125 20.01757812 C-0.16182512 13.34515869 -0.0767583 6.67266685 0 0 Z " fill="#935BA2" transform="translate(165,119)"/>
<path d="M0 0 C14.02162157 2.9972508 27.76036504 11.07510792 38 21 C38.495 21.99 38.495 21.99 39 23 C28 23 28 23 25 22 C25.185625 21.38125 25.37125 20.7625 25.5625 20.125 C26.23686176 17.95839822 26.23686176 17.95839822 25 16 C25.33 15.34 25.66 14.68 26 14 C25.401875 13.855625 24.80375 13.71125 24.1875 13.5625 C22.43849596 13.1127561 20.71322977 12.57107659 19 12 C19 12.66 19 13.32 19 14 C18.01 14 17.02 14 16 14 C16 12.35 16 10.7 16 9 C10.68376389 6.62517344 5.3576845 4.27986574 0 2 C0 1.34 0 0.68 0 0 Z " fill="#BA6D8C" transform="translate(224,73)"/>
<path d="M0 0 C-3.05135301 3.52079193 -5.56491125 4.70643245 -10 6 C-12.67591369 7.10184681 -13.99023557 7.98962529 -16 10.125 C-18 12 -18 12 -22 12 C-25.81186907 12.46675948 -27.75965462 12.83976974 -31 15 C-35.01051605 16.45061219 -39.00922338 17.60184468 -43.1875 18.4375 C-43.785625 18.623125 -44.38375 18.80875 -45 19 C-45.33 19.66 -45.66 20.32 -46 21 C-46.99 21 -47.98 21 -49 21 C-49 20.34 -49 19.68 -49 19 C-53.62 19.33 -58.24 19.66 -63 20 C-63 19.01 -63 18.02 -63 17 C-62.42894531 17.02320313 -61.85789063 17.04640625 -61.26953125 17.0703125 C-51.76731473 17.28180858 -42.43718294 16.64045062 -34 12 C-31.125 11.8125 -31.125 11.8125 -29 12 C-28.67 11.34 -28.34 10.68 -28 10 C-26.68 10 -25.36 10 -24 10 C-23.67 9.34 -23.34 8.68 -23 8 C-21 7.33333333 -19 6.66666667 -17 6 C-15.26031585 5.01945075 -13.52087943 4.03795217 -11.80078125 3.0234375 C-4.08500401 -1.361668 -4.08500401 -1.361668 0 0 Z " fill="#9354E5" transform="translate(240,210)"/>
<path d="M0 0 C0.66 0 1.32 0 2 0 C2.0885085 4.08319218 2.14089063 8.16613163 2.1875 12.25 C2.21263672 13.38953125 2.23777344 14.5290625 2.26367188 15.703125 C2.34503915 25.25021835 1.02486586 34.25898542 -3 43 C-5.125 44.3125 -5.125 44.3125 -7 45 C-6.53990813 40.3990813 -6.11608745 37.09991943 -4 33 C-3.61936779 30.6739143 -3.28730055 28.33944736 -3 26 C-2.83628906 25.26652344 -2.67257812 24.53304687 -2.50390625 23.77734375 C-1.85465435 20.19890886 -1.68059616 16.62530065 -1.5 13 C-1.28049186 8.59357744 -1.01027728 4.31051638 0 0 Z " fill="#A63BBA" transform="translate(278,126)"/>
<path d="M0 0 C0.84046875 0.02255859 1.6809375 0.04511719 2.546875 0.06835938 C4.61534964 0.12712286 6.68290488 0.21680115 8.75 0.3125 C10.07339119 4.28267357 9.76212931 8.00923557 9.62890625 12.13671875 C9.60529526 12.99811966 9.58168427 13.85952057 9.55735779 14.74702454 C9.4807872 17.49818675 9.3967344 20.2490628 9.3125 23 C9.2592727 24.86522037 9.20653235 26.73045471 9.15429688 28.59570312 C9.02518096 33.16814996 8.88935423 37.74035421 8.75 42.3125 C8.42 42.3125 8.09 42.3125 7.75 42.3125 C7.73018066 41.33901611 7.71036133 40.36553223 7.68994141 39.36254883 C7.61364633 35.73745649 7.52496664 32.11275306 7.43261719 28.48803711 C7.39442591 26.92170919 7.35955606 25.35529651 7.328125 23.78881836 C7.28225929 21.532082 7.22430231 19.27592417 7.1640625 17.01953125 C7.15251129 16.32350296 7.14096008 15.62747467 7.12905884 14.91035461 C7.01098786 10.98663395 6.6437467 7.78436894 4.75 4.3125 C1.47371171 2.63795265 -0.38115901 2.13478252 -4 2.875 C-6.94814121 4.75853466 -7.36965552 5.93784616 -8.25 9.3125 C-8.67551252 11.97937496 -8.97648567 14.62294239 -9.25 17.3125 C-9.58 17.3125 -9.91 17.3125 -10.25 17.3125 C-10.38277344 16.69761719 -10.51554688 16.08273438 -10.65234375 15.44921875 C-10.82894531 14.64097656 -11.00554687 13.83273438 -11.1875 13 C-11.36152344 12.19949219 -11.53554687 11.39898437 -11.71484375 10.57421875 C-12.24886159 8.167099 -12.24886159 8.167099 -13.25 5.3125 C-10.12978275 -0.81137467 -6.12968325 -0.31127298 0 0 Z " fill="#A26793" transform="translate(189.25,119.6875)"/>
<path d="M0 0 C2.475 0.99 2.475 0.99 5 2 C-4.51545766 12.35398458 -21.25520739 20.65075685 -35.2734375 21.296875 C-38.85825585 21.35615903 -42.42147704 21.22841636 -46 21 C-45.67 20.34 -45.34 19.68 -45 19 C-44.09636719 19.01160156 -43.19273437 19.02320313 -42.26171875 19.03515625 C-40.49248047 19.04869141 -40.49248047 19.04869141 -38.6875 19.0625 C-37.51574219 19.07410156 -36.34398437 19.08570313 -35.13671875 19.09765625 C-31.96940805 19.14899898 -31.96940805 19.14899898 -29 18 C-29 17.34 -29 16.68 -29 16 C-22 15 -22 15 -15 14 C-14.67 13.01 -14.34 12.02 -14 11 C-11.37847588 9.07754898 -8.85413422 7.37682392 -5.875 6.0625 C-3.22923733 4.56323449 -1.7844611 2.42176863 0 0 Z " fill="#6D85EA" transform="translate(207,249)"/>
<path d="M0 0 C2.66567054 0.0108511 5.33068603 -0.00002146 7.99633789 -0.01269531 C9.70141749 -0.01137577 11.40649669 -0.00881764 13.11157227 -0.00488281 C14.29904808 -0.01095551 14.29904808 -0.01095551 15.51051331 -0.01715088 C19.3363781 0.01550713 22.33533137 0.09392245 25.57641602 2.26074219 C24.48586914 2.33421875 24.48586914 2.33421875 23.37329102 2.40917969 C16.01748271 2.95615005 8.83119377 3.93584483 1.57641602 5.26074219 C1.90641602 3.94074219 2.23641602 2.62074219 2.57641602 1.26074219 C-0.56980081 1.39896417 -3.71543964 1.54759303 -6.86108398 1.69824219 C-7.75891602 1.73755859 -8.65674805 1.776875 -9.58178711 1.81738281 C-10.43579102 1.85927734 -11.28979492 1.90117188 -12.16967773 1.94433594 C-12.96043701 1.98099365 -13.75119629 2.01765137 -14.56591797 2.05541992 C-16.43759839 2.06637475 -16.43759839 2.06637475 -17.42358398 3.26074219 C-19.22787521 3.54745941 -21.04324401 3.7662218 -22.86108398 3.94824219 C-23.84979492 4.05523437 -24.83850586 4.16222656 -25.85717773 4.27246094 C-28.42358398 4.26074219 -28.42358398 4.26074219 -30.42358398 2.26074219 C-20.2438775 0.21991965 -10.34573093 -0.05026423 0 0 Z " fill="#B15BB5" transform="translate(154.423583984375,63.7392578125)"/>
<path d="M0 0 C0.33 0 0.66 0 1 0 C1.33 9.24 1.66 18.48 2 28 C3.32 28 4.64 28 6 28 C5.39816251 30.02045442 4.72693904 32.02111039 4 34 C3.01 34.495 3.01 34.495 2 35 C1.81767236 39.64935477 2.2706018 42.7341511 4 47 C3.625 49.3125 3.625 49.3125 3 51 C2.34 51 1.68 51 1 51 C0.03186746 48.09560239 -0.12144834 46.2718176 -0.11352539 43.25317383 C-0.11344986 42.29240433 -0.11337433 41.33163483 -0.11329651 40.3417511 C-0.10813522 39.30729355 -0.10297394 38.272836 -0.09765625 37.20703125 C-0.0962413 36.14586594 -0.09482635 35.08470062 -0.09336853 33.99137878 C-0.08776606 30.59839065 -0.07521314 27.20546823 -0.0625 23.8125 C-0.05748532 21.51367283 -0.05292236 19.21484462 -0.04882812 16.91601562 C-0.03779583 11.27732128 -0.0210553 5.63866534 0 0 Z " fill="#9E37D3" transform="translate(148,198)"/>
<path d="M0 0 C2.97 1.32 5.94 2.64 9 4 C7.02 4.99 7.02 4.99 5 6 C3.62913085 7.29470975 2.28659163 8.62150897 1 10 C1.33 10.66 1.66 11.32 2 12 C1.67524816 13.33544941 1.33976526 14.66829115 1 16 C0.8527204 18.1694408 0.7527453 20.34229053 0.68359375 22.515625 C0.64169922 23.76601562 0.59980469 25.01640625 0.55664062 26.3046875 C0.51732422 27.60664063 0.47800781 28.90859375 0.4375 30.25 C0.39431641 31.56742188 0.35113281 32.88484375 0.30664062 34.2421875 C0.20058083 37.49468788 0.09851976 40.74726392 0 44 C-1.32 43.67 -2.64 43.34 -4 43 C-3.01 43 -2.02 43 -1 43 C-1.0611499 41.41916626 -1.0611499 41.41916626 -1.12353516 39.80639648 C-1.27272039 35.87250837 -1.40707863 31.93822607 -1.53710938 28.00366211 C-1.59527875 26.30527802 -1.65739473 24.60702409 -1.72363281 22.90893555 C-1.81849441 20.45906295 -1.89885222 18.00906328 -1.9765625 15.55859375 C-2.00875885 14.80726669 -2.0409552 14.05593964 -2.0741272 13.28184509 C-2.20982136 8.43699456 -1.55272311 4.59722628 0 0 Z " fill="#AB44CC" transform="translate(148,181)"/>
<path d="M0 0 C0.33 0 0.66 0 1 0 C1.33 7.92 1.66 15.84 2 24 C2.66 24 3.32 24 4 24 C6.13057058 28.1279805 6.11803171 31.49284793 5.875 36.01171875 C5.79479423 38.23569187 5.79479423 38.23569187 8 40 C8.4140625 42.8203125 8.4140625 42.8203125 8.625 46.125 C8.69976562 47.22070312 8.77453125 48.31640625 8.8515625 49.4453125 C8.90054688 50.28835937 8.94953125 51.13140625 9 52 C5.29604687 46.44407031 3.71031529 41.05683122 3.40625 34.46875 C3.06280353 31.75500128 3.06280353 31.75500128 1.48046875 28.5 C-0.68851998 22.9459368 -0.32462591 17.37883393 -0.1875 11.5 C-0.17396484 10.39140625 -0.16042969 9.2828125 -0.14648438 8.140625 C-0.11138881 5.42656768 -0.0622227 2.71354807 0 0 Z " fill="#B765A9" transform="translate(134,96)"/>
<path d="M0 0 C0.33 0 0.66 0 1 0 C1.36256858 1.4562672 1.71479793 2.91511185 2.0625 4.375 C2.25972656 5.18710938 2.45695312 5.99921875 2.66015625 6.8359375 C3 9 3 9 2 11 C1.34 11 0.68 11 0 11 C-0.33 11.99 -0.66 12.98 -1 14 C-1.61875 13.814375 -2.2375 13.62875 -2.875 13.4375 C-5.04160178 12.76313824 -5.04160178 12.76313824 -7 14 C-7 13.01 -7 12.02 -7 11 C-8.423125 11.2784375 -8.423125 11.2784375 -9.875 11.5625 C-13 12 -13 12 -15 11 C-15.33 11.66 -15.66 12.32 -16 13 C-17.32 13 -18.64 13 -20 13 C-20 11.68 -20 10.36 -20 9 C-19.19175781 9.02320313 -18.38351563 9.04640625 -17.55078125 9.0703125 C-16.48214844 9.08835938 -15.41351563 9.10640625 -14.3125 9.125 C-13.25675781 9.14820313 -12.20101562 9.17140625 -11.11328125 9.1953125 C-7.90457245 8.99401333 -5.81230185 8.54478552 -3 7 C-1.78473015 5.31953843 -1.78473015 5.31953843 -1.1875 3.375 C-0.795625 2.26125 -0.40375 1.1475 0 0 Z " fill="#AD55C7" transform="translate(133,154)"/>
<path d="M0 0 C-1.875 5.75 -1.875 5.75 -3 8 C-3.66 8 -4.32 8 -5 8 C-5.33 7.34 -5.66 6.68 -6 6 C-7.98 6.99 -9.96 7.98 -12 9 C-11.34 9.66 -10.68 10.32 -10 11 C-12.7819368 14.27286682 -16.27954067 15.96427697 -20 18 C-19.50334288 13.40592168 -19.50334288 13.40592168 -17.0625 11.4375 C-16.381875 10.963125 -15.70125 10.48875 -15 10 C-14.74089844 9.37738281 -14.48179688 8.75476563 -14.21484375 8.11328125 C-12.52741395 5.17791301 -10.47702944 4.30118903 -7.5 2.75 C-6.03046875 1.96882813 -6.03046875 1.96882813 -4.53125 1.171875 C-2 0 -2 0 0 0 Z " fill="#785EC8" transform="translate(106,72)"/>
<path d="M0 0 C0.33 0 0.66 0 1 0 C1.06696935 2.879682 1.09779968 5.53594314 0.50219727 8.36206055 C-0.02823942 11.14833591 -0.11349002 13.68528691 -0.09765625 16.51953125 C-0.09443359 17.54111328 -0.09121094 18.56269531 -0.08789062 19.61523438 C-0.07951172 20.67033203 -0.07113281 21.72542969 -0.0625 22.8125 C-0.05798828 23.88693359 -0.05347656 24.96136719 -0.04882812 26.06835938 C-0.03707729 28.71229683 -0.02064787 31.35611952 0 34 C-0.99 34.495 -0.99 34.495 -2 35 C-3.41709735 30.10695015 -3.18418862 25.24397986 -3.1875 20.1875 C-3.19974609 19.21490234 -3.21199219 18.24230469 -3.22460938 17.24023438 C-3.23732954 10.97767301 -2.84175931 5.68351861 0 0 Z " fill="#C5858D" transform="translate(138,85)"/>
<path d="M0 0 C0 2.64 0 5.28 0 8 C0.66 8 1.32 8 2 8 C2.33 10.31 2.66 12.62 3 15 C2.34 14.01 1.68 13.02 1 12 C-1.31768101 9.19295526 -3.13493099 8.4818246 -6.6875 7.8125 C-7.89986328 7.57466797 -7.89986328 7.57466797 -9.13671875 7.33203125 C-9.75160156 7.22246094 -10.36648437 7.11289063 -11 7 C-10.34 6.34 -9.68 5.68 -9 5 C-9 4.01 -9 3.02 -9 2 C-2.25 0 -2.25 0 0 0 Z " fill="#AC52D1" transform="translate(130,119)"/>
<path d="M0 0 C0.99 0 1.98 0 3 0 C3.226875 1.0725 3.45375 2.145 3.6875 3.25 C5.15164363 7.43326752 6.53088457 8.44380969 10 11 C10 11.99 10 12.98 10 14 C10.66 14.33 11.32 14.66 12 15 C12.33 15.99 12.66 16.98 13 18 C14.29355827 19.37195574 15.62298702 20.71182656 17 22 C14 22 14 22 11.84375 20.171875 C11.0703125 19.37265625 10.296875 18.5734375 9.5 17.75 C8.7265625 16.96109375 7.953125 16.1721875 7.15625 15.359375 C3.82638318 11.71582508 1.75044949 9.15619736 0.8125 4.25 C0.65394531 3.45078125 0.49539062 2.6515625 0.33203125 1.828125 C0.22246094 1.22484375 0.11289063 0.6215625 0 0 Z " fill="#815CCF" transform="translate(83,184)"/>
<path d="M0 0 C0.33 0 0.66 0 1 0 C1.14307911 4.07509094 1.28547705 8.15020506 1.42724609 12.2253418 C1.4755617 13.61141604 1.52406285 14.99748382 1.57275391 16.38354492 C1.64274186 18.37677325 1.71200543 20.37002696 1.78125 22.36328125 C1.8440918 24.16212769 1.8440918 24.16212769 1.90820312 25.99731445 C1.96935226 27.9975091 2 29.99887086 2 32 C-4.375 36.25 -4.375 36.25 -9 36 C-8.01 35.34 -7.02 34.68 -6 34 C-1.93556993 30.40454263 -1.82065134 26.82426314 -1.46484375 21.58203125 C-1.33432617 19.70161133 -1.33432617 19.70161133 -1.20117188 17.78320312 C-1.0706543 15.81770508 -1.0706543 15.81770508 -0.9375 13.8125 C-0.8460625 12.47718888 -0.75426975 11.14190204 -0.66210938 9.80664062 C-0.4379054 6.53798273 -0.21735074 3.2691196 0 0 Z " fill="#9345B9" transform="translate(230,143)"/>
<path d="M0 0 C9.1570933 2.06842578 16.8913418 6.44833986 25 11 C24.01 11.66 23.02 12.32 22 13 C21.01 12.67 20.02 12.34 19 12 C19 12.66 19 13.32 19 14 C18.01 14 17.02 14 16 14 C16 12.35 16 10.7 16 9 C10.68376389 6.62517344 5.3576845 4.27986574 0 2 C0 1.34 0 0.68 0 0 Z " fill="#BA8C87" transform="translate(224,73)"/>
<path d="M0 0 C0.66 0.33 1.32 0.66 2 1 C0.45386452 3.63593582 -1.11039898 6.25768342 -2.6875 8.875 C-3.12255859 9.62136719 -3.55761719 10.36773437 -4.00585938 11.13671875 C-7.36614957 16.66252929 -7.36614957 16.66252929 -10.83203125 18.5078125 C-11.54746094 18.67023438 -12.26289063 18.83265625 -13 19 C-12.6875 17.0625 -12.6875 17.0625 -12 15 C-11.01 14.67 -10.02 14.34 -9 14 C-7.97718482 11.90280128 -7.97718482 11.90280128 -7.3125 9.4375 C-7.06113281 8.61121094 -6.80976563 7.78492188 -6.55078125 6.93359375 C-6.36902344 6.29550781 -6.18726563 5.65742188 -6 5 C-4.68 5 -3.36 5 -2 5 C-2.33 4.01 -2.66 3.02 -3 2 C-2.01 1.34 -1.02 0.68 0 0 Z " fill="#975ED8" transform="translate(261,193)"/>
<path d="M0 0 C4.54075781 4.14010271 7.71842138 8.82390176 11 14 C10.67 14.66 10.34 15.32 10 16 C9.34 15.67 8.68 15.34 8 15 C8 14.01 8 13.02 8 12 C6.35 12.66 4.7 13.32 3 14 C2.87625 13.360625 2.7525 12.72125 2.625 12.0625 C2.41875 11.381875 2.2125 10.70125 2 10 C1.34 9.67 0.68 9.34 0 9 C0.66 9 1.32 9 2 9 C1.67 7.88625 1.34 6.7725 1 5.625 C0 2 0 2 0 0 Z " fill="#AC619E" transform="translate(264,97)"/>
<path d="M0 0 C0.99 0.33 1.98 0.66 3 1 C2.54979057 6.85272256 -0.03839227 11.08220119 -3 16 C-5 13 -5 13 -6 10 C-5.34 10 -4.68 10 -4 10 C-4 9.34 -4 8.68 -4 8 C-3.34 8 -2.68 8 -2 8 C-2.33 6.02 -2.66 4.04 -3 2 C-2.01 1.34 -1.02 0.68 0 0 Z " fill="#9B58D2" transform="translate(267,176)"/>
<path d="M0 0 C0.928125 0.165 1.85625 0.33 2.8125 0.5 C5.95621353 1.07748388 5.95621353 1.07748388 9 1 C10.90001676 3.79414229 10.99542768 5.05121003 10.6875 8.5 C10.1906848 11.02924101 9.69457888 13.51936116 9 16 C8 15 8 15 7.90234375 13.15234375 C7.95117188 10.07617188 7.95117188 10.07617188 8 7 C3.545 5.02 3.545 5.02 -1 3 C-0.67 2.01 -0.34 1.02 0 0 Z " fill="#B77D87" transform="translate(157,104)"/>
<path d="M0 0 C0.66 0.33 1.32 0.66 2 1 C0.68 1.33 -0.64 1.66 -2 2 C-2.061875 2.5775 -2.12375 3.155 -2.1875 3.75 C-3 6 -3 6 -5.375 7.875 C-8.36450505 10.29507551 -9.4904481 12.5041956 -11 16 C-10.34 16.33 -9.68 16.66 -9 17 C-10.98 17.99 -10.98 17.99 -13 19 C-13.59050323 14.27597414 -13.21737951 11.74267449 -10.4375 7.8125 C-7.37058298 4.068093 -4.41804711 1.95413622 0 0 Z " fill="#CE917B" transform="translate(152,71)"/>
<path d="M0 0 C1.65 0 3.3 0 5 0 C-0.66481022 7.25803809 -7.4384791 12.80145438 -15 18 C-15 15 -15 15 -13.609375 13.53515625 C-12.99578125 13.04917969 -12.3821875 12.56320313 -11.75 12.0625 C-9.58727854 10.31047716 -7.63586554 8.62602407 -5.6875 6.625 C-4 5 -4 5 -2 5 C-1.34 3.35 -0.68 1.7 0 0 Z " fill="#7381E7" transform="translate(228,233)"/>
<path d="M0 0 C0.33 0 0.66 0 1 0 C1.0885085 4.08319218 1.14089063 8.16613163 1.1875 12.25 C1.21263672 13.38953125 1.23777344 14.5290625 1.26367188 15.703125 C1.34668198 25.44297785 -0.25401505 34.00475403 -4 43 C-4.33 43 -4.66 43 -5 43 C-5.25 37.375 -5.25 37.375 -3 34 C-0.79168512 26.63718517 -0.59743705 19.0027373 -0.375 11.375 C-0.31699219 9.72564453 -0.31699219 9.72564453 -0.2578125 8.04296875 C-0.16456612 5.36213541 -0.07876733 2.6812911 0 0 Z " fill="#AB4A9A" transform="translate(279,126)"/>
<path d="M0 0 C3.63 0.33 7.26 0.66 11 1 C11 1.66 11 2.32 11 3 C8.09399739 4.25664978 6.20395416 5 3 5 C3 5.66 3 6.32 3 7 C1.0625 6.6875 1.0625 6.6875 -1 6 C-1.33 5.01 -1.66 4.02 -2 3 C-1.34 2.01 -0.68 1.02 0 0 Z " fill="#BF4AD7" transform="translate(143,65)"/>
<path d="M0 0 C1.65 1.65 3.3 3.3 5 5 C4.34 5 3.68 5 3 5 C3.40992187 5.67546875 3.81984375 6.3509375 4.2421875 7.046875 C5.05042969 8.38492188 5.05042969 8.38492188 5.875 9.75 C6.40867187 10.63171875 6.94234375 11.5134375 7.4921875 12.421875 C8.23855469 13.69804687 8.23855469 13.69804687 9 15 C9.41507813 15.70640625 9.83015625 16.4128125 10.2578125 17.140625 C11 19 11 19 10 22 C0 6.33333333 0 6.33333333 0 0 Z " fill="#7061C2" transform="translate(74,169)"/>
<path d="M0 0 C2.97 0 5.94 0 9 0 C8.32353508 2.7058597 7.64282657 4.51516936 5.37890625 6.22265625 C0.59072581 9 0.59072581 9 -2 9 C-2 7.68 -2 6.36 -2 5 C1.08809695 3.23537317 2.23312136 3 6 3 C6 2.34 6 1.68 6 1 C4.02 1 2.04 1 0 1 C0 0.67 0 0.34 0 0 Z " fill="#BE4FC2" transform="translate(148,65)"/>
<path d="M0 0 C0.33 0 0.66 0 1 0 C1.01981934 0.64026123 1.03963867 1.28052246 1.06005859 1.94018555 C1.15563601 4.8563528 1.26518214 7.77183572 1.375 10.6875 C1.4059375 11.69490234 1.436875 12.70230469 1.46875 13.74023438 C1.52675781 15.20493164 1.52675781 15.20493164 1.5859375 16.69921875 C1.6173584 17.59471436 1.6487793 18.49020996 1.68115234 19.4128418 C2.03274811 22.26572106 2.70345277 24.43610704 4 27 C6.52372901 28.36078035 6.52372901 28.36078035 9 29 C9 29.33 9 29.66 9 30 C6.69 30 4.38 30 2 30 C-0.28487759 23.65811536 -0.23299776 17.75420732 -0.125 11.0625 C-0.11597656 9.99708984 -0.10695313 8.93167969 -0.09765625 7.83398438 C-0.07423414 5.22241966 -0.04143452 2.61133063 0 0 Z " fill="#975ABD" transform="translate(115,134)"/>
<path d="M0 0 C4.62878086 0.55104534 7.88371426 1.86269779 12 4 C14.56531414 5.04378979 17.14373008 6.04575851 19.73046875 7.03515625 C22 8 22 8 25 10 C16.05412251 9.39005381 7.83776966 5.13660065 0 1 C0 0.67 0 0.34 0 0 Z " fill="#AA5BC1" transform="translate(110,214)"/>
<path d="M0 0 C0.33 2.31 0.66 4.62 1 7 C1.99 6.34 2.98 5.68 4 5 C2.66511872 8.59391114 1.03977277 11.75490696 -1 15 C-2.43088528 12.13822943 -1.59991697 10.06624227 -1 7 C-1.99 6.67 -2.98 6.34 -4 6 C-3.625 3.5625 -3.625 3.5625 -3 1 C-1 0 -1 0 0 0 Z " fill="#B752C7" transform="translate(138,73)"/>
<path d="M0 0 C-3.625 3 -3.625 3 -7 3 C-7.33 4.32 -7.66 5.64 -8 7 C-9.32 7.33 -10.64 7.66 -12 8 C-12.33 7.01 -12.66 6.02 -13 5 C-12 3 -12 3 -9 2 C-8.67 1.34 -8.34 0.68 -8 0 C-4.71585695 -0.95067299 -3.30306592 -1.10102197 0 0 Z " fill="#CF9B68" transform="translate(162,70)"/>
<path d="M0 0 C0 0.33 0 0.66 0 1 C-7.7629761 3.94397288 -14.74447081 4.34937193 -23 4 C-16.27467414 -0.48355057 -7.84654605 -0.30050602 0 0 Z " fill="#D08D7C" transform="translate(178,66)"/>
<path d="M0 0 C0.33 0 0.66 0 1 0 C1.04898438 0.80824219 1.09796875 1.61648437 1.1484375 2.44921875 C1.22320312 3.51785156 1.29796875 4.58648437 1.375 5.6875 C1.44460937 6.74324219 1.51421875 7.79898438 1.5859375 8.88671875 C1.98849898 11.91352536 2.83397148 14.20153155 4 17 C3.625 19.3125 3.625 19.3125 3 21 C2.34 21 1.68 21 1 21 C0.07811539 18.23434618 -0.11785222 16.61716298 -0.09765625 13.76953125 C-0.09282227 12.56586914 -0.09282227 12.56586914 -0.08789062 11.33789062 C-0.07951172 10.50451172 -0.07113281 9.67113281 -0.0625 8.8125 C-0.05798828 7.96751953 -0.05347656 7.12253906 -0.04882812 6.25195312 C-0.03705403 4.16793845 -0.0191189 2.08396023 0 0 Z " fill="#9663D3" transform="translate(148,228)"/>
<path d="M0 0 C0.99 0.33 1.98 0.66 3 1 C0.11912454 3.40072955 -2.56404834 5.47291037 -6 7 C-5.67 7.66 -5.34 8.32 -5 9 C-9.75 10.125 -9.75 10.125 -12 9 C-11.67 7.68 -11.34 6.36 -11 5 C-7.37 4.01 -3.74 3.02 0 2 C0 1.34 0 0.68 0 0 Z " fill="#9C44C9" transform="translate(196,166)"/>
<path d="M0 0 C-0.99 0.66 -1.98 1.32 -3 2 C-6.35066781 4.57182009 -6.61596354 7.09881609 -7.1875 11.1875 C-7.34605469 12.27417969 -7.50460938 13.36085938 -7.66796875 14.48046875 C-7.77753906 15.31191406 -7.88710937 16.14335938 -8 17 C-8.33 17 -8.66 17 -9 17 C-9 14.03 -9 11.06 -9 8 C-9.66 7.67 -10.32 7.34 -11 7 C-9.54588235 2.39529412 -9.54588235 2.39529412 -7.1875 0.6875 C-4.68810383 -0.09802451 -2.60506718 -0.14472595 0 0 Z " fill="#A76C90" transform="translate(220,111)"/>
<path d="M0 0 C4.44321353 0.51944043 6.83253477 2.10837085 10.25 4.9375 C11.12140625 5.64777344 11.9928125 6.35804687 12.890625 7.08984375 C15 9 15 9 16 11 C12.61436672 10.41086998 10.87234858 9.26432478 8.375 6.9375 C6.06597823 4.55013292 6.06597823 4.55013292 3 4 C3 3.34 3 2.68 3 2 C2.01 2 1.02 2 0 2 C0 1.34 0 0.68 0 0 Z " fill="#AA7A8B" transform="translate(247,85)"/>
<path d="M0 0 C1.32 0.66 2.64 1.32 4 2 C3.3125 3.875 3.3125 3.875 2 6 C-0.4375 7.125 -0.4375 7.125 -3 8 C-3.99 8.66 -4.98 9.32 -6 10 C-5.65719878 6.82908867 -5.49050485 5.41386347 -3 3.3125 C-2.34 2.879375 -1.68 2.44625 -1 2 C-0.67 1.34 -0.34 0.68 0 0 Z " fill="#6F5DDD" transform="translate(92,80)"/>
<path d="M0 0 C1.60379341 -0.05416188 3.20811406 -0.09286638 4.8125 -0.125 C5.70582031 -0.14820313 6.59914063 -0.17140625 7.51953125 -0.1953125 C10.966001 0.07606307 12.60656148 1.60656148 15 4 C9.36344696 5.40913826 6.55846884 4.73956036 1.50390625 1.91015625 C1.00761719 1.60980469 0.51132813 1.30945313 0 1 C0 0.67 0 0.34 0 0 Z " fill="#C04AD6" transform="translate(118,216)"/>
<path d="M0 0 C2.64 0.66 5.28 1.32 8 2 C8 3.32 8 4.64 8 6 C8.99 6 9.98 6 11 6 C10.67 8.31 10.34 10.62 10 13 C9.67 11.68 9.34 10.36 9 9 C8.34 9 7.68 9 7 9 C6.6596875 7.824375 6.6596875 7.824375 6.3125 6.625 C5.21875 3.78125 5.21875 3.78125 2.375 2.6875 C1.59125 2.460625 0.8075 2.23375 0 2 C0 1.34 0 0.68 0 0 Z " fill="#A76794" transform="translate(221,110)"/>
<path d="M0 0 C0.33 1.32 0.66 2.64 1 4 C2.65 4 4.3 4 6 4 C5.67 6.64 5.34 9.28 5 12 C4.01 12.33 3.02 12.66 2 13 C-0.28571429 4.57142857 -0.28571429 4.57142857 0 0 Z " fill="#665EDB" transform="translate(72,156)"/>
<path d="M0 0 C-1.46248114 3.88056075 -3.31854481 5.04133478 -7 6.8125 C-8.3303125 7.47185547 -8.3303125 7.47185547 -9.6875 8.14453125 C-10.450625 8.42683594 -11.21375 8.70914063 -12 9 C-12.66 8.67 -13.32 8.34 -14 8 C-11.61426621 6.10786631 -9.92824652 4.97608217 -7 4 C-6.34 3.319375 -5.68 2.63875 -5 1.9375 C-3 0 -3 0 0 0 Z " fill="#9747DA" transform="translate(246,203)"/>
<path d="M0 0 C5.8022175 -0.36263859 9.63999211 0.74315457 15 3 C14.67 4.98 14.34 6.96 14 9 C13.34 8.01 12.68 7.02 12 6 C9.85404036 3.46386588 8.32729894 2.39144693 5 2 C2.31850007 2.38567131 2.31850007 2.38567131 0 3 C0 2.01 0 1.02 0 0 Z " fill="#AA8283" transform="translate(151,107)"/>
<path d="M0 0 C0.33 0.66 0.66 1.32 1 2 C0.67 2.66 0.34 3.32 0 4 C0.66 4.33 1.32 4.66 2 5 C1.25 6.9375 1.25 6.9375 0 9 C-2.078125 9.62890625 -2.078125 9.62890625 -4 10 C-3.71872579 8.51882199 -3.42466268 7.04006751 -3.125 5.5625 C-2.96257812 4.73878906 -2.80015625 3.91507812 -2.6328125 3.06640625 C-2.42398438 2.38449219 -2.21515625 1.70257813 -2 1 C-1.34 0.67 -0.68 0.34 0 0 Z " fill="#5D61D8" transform="translate(78,95)"/>
<path d="M0 0 C1.98 0 3.96 0 6 0 C6 0.66 6 1.32 6 2 C7.11375 2.1546875 7.11375 2.1546875 8.25 2.3125 C11.17014018 3.04253504 12.73187554 4.06789398 15 6 C11.16031522 6 9.28518725 5.53048937 5.8125 4.125 C4.93207031 3.77695313 4.05164063 3.42890625 3.14453125 3.0703125 C1 2 1 2 0 0 Z " fill="#C28A72" transform="translate(218,73)"/>
<path d="M0 0 C3 1 3 1 5 3 C4.34 3 3.68 3 3 3 C3.495 3.61875 3.99 4.2375 4.5 4.875 C6 7 6 7 6 9 C1.125 7.125 1.125 7.125 0 6 C-0.04080783 4.00041636 -0.04254356 1.99954746 0 0 Z " fill="#717DEE" transform="translate(155,260)"/>
<path d="M0 0 C0.66 0 1.32 0 2 0 C2.28875 1.03125 2.5775 2.0625 2.875 3.125 C3.55905941 5.55611762 4.31824727 7.87099252 5.1875 10.25 C6 13 6 13 5 16 C1.91532502 10.60540561 0.44356295 6.20988129 0 0 Z " fill="#7F77D3" transform="translate(149,249)"/>
<path d="M0 0 C3.28788824 3.11016455 5.83735988 6.01618925 8 10 C6.68 10 5.36 10 4 10 C3.67 9.01 3.34 8.02 3 7 C2.484375 6.525625 1.96875 6.05125 1.4375 5.5625 C0 4 0 4 0 0 Z " fill="#A86591" transform="translate(264,97)"/>
<path d="M0 0 C1.65 0 3.3 0 5 0 C5 0.66 5 1.32 5 2 C5.66 2.33 6.32 2.66 7 3 C6.67 3.99 6.34 4.98 6 6 C3.03824877 5.38722388 1.61941217 4.74627478 -1 3 C-0.67 2.01 -0.34 1.02 0 0 Z " fill="#AB4FDB" transform="translate(107,208)"/>
<path d="M0 0 C0.99 0.33 1.98 0.66 3 1 C-0.44615385 6.78461538 -0.44615385 6.78461538 -3.25 7.875 C-3.8275 7.91625 -4.405 7.9575 -5 8 C-4.6875 6.0625 -4.6875 6.0625 -4 4 C-3.01 3.67 -2.02 3.34 -1 3 C-0.67 2.01 -0.34 1.02 0 0 Z " fill="#8D66DB" transform="translate(253,204)"/>
<path d="M0 0 C0.99 0 1.98 0 3 0 C3 1.98 3 3.96 3 6 C3.99 6.33 4.98 6.66 6 7 C6 7.33 6 7.66 6 8 C4.35 8 2.7 8 1 8 C0.17361624 5.10765685 0 3.11257569 0 0 Z " fill="#A44CBE" transform="translate(176,160)"/>
<path d="M0 0 C0.99 0.33 1.98 0.66 3 1 C0.22719294 4.08089673 -2.06326356 5.68775452 -6 7 C-6 6.01 -6 5.02 -6 4 C-3.1875 1.75 -3.1875 1.75 0 0 Z " fill="#985DE9" transform="translate(237,209)"/>
<path d="M0 0 C4.96916636 0.51405169 9.29026351 1.23384882 14 3 C14 3.33 14 3.66 14 4 C8.34605369 4.34615998 4.96993194 3.43425238 0 1 C0 0.67 0 0.34 0 0 Z " fill="#C4A37E" transform="translate(209,69)"/>
<path d="M0 0 C1.5625 1.8125 1.5625 1.8125 3 4 C2.67 4.99 2.34 5.98 2 7 C1.34 7 0.68 7 0 7 C-0.33 7.99 -0.66 8.98 -1 10 C-1.66 9.67 -2.32 9.34 -3 9 C-3 8.01 -3 7.02 -3 6 C-2.34 6 -1.68 6 -1 6 C-0.67 4.02 -0.34 2.04 0 0 Z " fill="#C04AD8" transform="translate(133,158)"/>
<path d="M0 0 C0.928125 0.165 1.85625 0.33 2.8125 0.5 C5.95621353 1.07748388 5.95621353 1.07748388 9 1 C9 1.99 9 2.98 9 4 C5.7 3.67 2.4 3.34 -1 3 C-0.67 2.01 -0.34 1.02 0 0 Z " fill="#C08381" transform="translate(157,104)"/>
<path d="M0 0 C1.98 0 3.96 0 6 0 C5.1875 2.9375 5.1875 2.9375 4 6 C3.01 6.33 2.02 6.66 1 7 C0.67 4.69 0.34 2.38 0 0 Z " fill="#A051DE" transform="translate(148,226)"/>
<path d="M0 0 C-0.33 1.98 -0.66 3.96 -1 6 C-1.99 6.33 -2.98 6.66 -4 7 C-4.33 5.35 -4.66 3.7 -5 2 C-2 0 -2 0 0 0 Z " fill="#9B3BCF" transform="translate(269,176)"/>
<path d="M0 0 C0.33 0 0.66 0 1 0 C1.22281874 1.91503674 1.42771076 3.83216506 1.625 5.75 C1.74101562 6.81734375 1.85703125 7.8846875 1.9765625 8.984375 C2.00029475 12.03792399 1.61420985 13.46162421 0 16 C-0.66 15.67 -1.32 15.34 -2 15 C-1.34 10.05 -0.68 5.1 0 0 Z " fill="#9B4AC2" transform="translate(166,167)"/>
<path d="M0 0 C0.33 0 0.66 0 1 0 C1.08133791 1.91595968 1.13934367 3.83291932 1.1875 5.75 C1.22230469 6.81734375 1.25710937 7.8846875 1.29296875 8.984375 C0.97082786 12.30027855 0.22851086 13.59016673 -2 16 C-2.66 15.67 -3.32 15.34 -4 15 C-3.34 13.35 -2.68 11.7 -2 10 C-1.34 10 -0.68 10 0 10 C0 6.7 0 3.4 0 0 Z " fill="#9750B1" transform="translate(198,152)"/>
<path d="M0 0 C4.95 0 9.9 0 15 0 C11.2311658 1.8844171 9.31987525 2.33429462 5.25 2.625 C4.26515625 2.69976562 3.2803125 2.77453125 2.265625 2.8515625 C1.51796875 2.90054688 0.7703125 2.94953125 0 3 C0 2.01 0 1.02 0 0 Z " fill="#9749DF" transform="translate(177,227)"/>
<path d="M0 0 C1.051875 0.350625 2.10375 0.70125 3.1875 1.0625 C6.7954681 1.94970527 8.52632489 2.05262882 12 1 C11.67 1.66 11.34 2.32 11 3 C9.00390625 3.44921875 9.00390625 3.44921875 6.5625 3.6875 C5.75941406 3.77386719 4.95632812 3.86023438 4.12890625 3.94921875 C2 4 2 4 0 3 C0 2.01 0 1.02 0 0 Z " fill="#8F51AE" transform="translate(182,167)"/>
<path d="M0 0 C0.66 0 1.32 0 2 0 C3.25664978 2.90600261 4 4.79604584 4 8 C2.68 7.67 1.36 7.34 0 7 C0 4.69 0 2.38 0 0 Z " fill="#BE749B" transform="translate(136,120)"/>
<path d="M0 0 C2.91589609 4.37384413 4.30254716 7.70542471 4 13 C2.5393715 10.35261084 2 9.10551666 2 6 C1.34 6 0.68 6 0 6 C0 5.34 0 4.68 0 4 C-0.66 3.67 -1.32 3.34 -2 3 C-1.34 2.01 -0.68 1.02 0 0 Z " fill="#A65C9E" transform="translate(275,113)"/>
<path d="M0 0 C0.66 0.33 1.32 0.66 2 1 C2 1.66 2 2.32 2 3 C2.66 3 3.32 3 4 3 C4 3.66 4 4.32 4 5 C2.35 5.33 0.7 5.66 -1 6 C-1.66 5.01 -2.32 4.02 -3 3 C-2.01 2.01 -1.02 1.02 0 0 Z " fill="#C0867F" transform="translate(147,105)"/>
<path d="M0 0 C2.125 0.375 2.125 0.375 4 1 C3.01 2.485 3.01 2.485 2 4 C1.01 4 0.02 4 -1 4 C-1.33 4.66 -1.66 5.32 -2 6 C-2 2 -2 2 0 0 Z " fill="#7B76F8" transform="translate(156,256)"/>
<path d="M0 0 C0.66 0 1.32 0 2 0 C2.6875 2.8125 2.6875 2.8125 3 6 C2.01 6.99 1.02 7.98 0 9 C0 6.03 0 3.06 0 0 Z " fill="#AA4BB7" transform="translate(274,121)"/>
<path d="M0 0 C-1.875 5.75 -1.875 5.75 -3 8 C-3.66 8 -4.32 8 -5 8 C-4.74438677 5.6568787 -4.40729228 3.32156597 -4 1 C-2 0 -2 0 0 0 Z " fill="#7E5CD2" transform="translate(106,72)"/>
<path d="M0 0 C0.66 0.33 1.32 0.66 2 1 C0.74464015 4.76607955 -0.52883585 5.26441793 -4 7 C-4.99 7 -5.98 7 -7 7 C-4.69 4.69 -2.38 2.38 0 0 Z " fill="#6E63C3" transform="translate(90,80)"/>
<path d="M0 0 C1.65 0 3.3 0 5 0 C1.80009492 2.74277578 -1.00499382 4.6302836 -5 6 C-5 5.34 -5 4.68 -5 4 C-4.0409375 3.8453125 -4.0409375 3.8453125 -3.0625 3.6875 C-2.381875 3.460625 -1.70125 3.23375 -1 3 C-0.67 2.01 -0.34 1.02 0 0 Z " fill="#7383E3" transform="translate(202,255)"/>
<path d="M0 0 C2.97 0.495 2.97 0.495 6 1 C5.01 2.485 5.01 2.485 4 4 C2.68 4 1.36 4 0 4 C0 2.68 0 1.36 0 0 Z " fill="#AC4FE0" transform="translate(113,163)"/>
<path d="M0 0 C2.31 0 4.62 0 7 0 C6.01 0.66 5.02 1.32 4 2 C1.91405138 3.91907273 0.60134291 5.59798564 -1 8 C-0.67 5.36 -0.34 2.72 0 0 Z " fill="#935BBF" transform="translate(117,126)"/>
<path d="M0 0 C0.99 0.33 1.98 0.66 3 1 C3 3.31 3 5.62 3 8 C2.34 7.67 1.68 7.34 1 7 C0.59270772 4.67843403 0.25561323 2.3431213 0 0 Z " fill="#5E61DB" transform="translate(69,144)"/>
<path d="M0 0 C0.33 1.32 0.66 2.64 1 4 C-0.65 5.32 -2.3 6.64 -4 8 C-4 4.09161134 -2.49432124 2.88405893 0 0 Z " fill="#6866C7" transform="translate(82,88)"/>
<path d="M0 0 C3.3 0.33 6.6 0.66 10 1 C9.67 1.66 9.34 2.32 9 3 C2.25 3.125 2.25 3.125 0 2 C0 1.34 0 0.68 0 0 Z " fill="#923CC1" transform="translate(217,178)"/>
<path d="M0 0 C1.1577506 3.47325181 1.06866652 6.36067448 1 10 C0.01 10.495 0.01 10.495 -1 11 C-2.60080151 6.99799622 -1.29279692 3.95443764 0 0 Z " fill="#BB4ED2" transform="translate(135,146)"/>
<path d="M0 0 C1.67542976 0.28604898 3.34385343 0.61781233 5 1 C4.01 2.485 4.01 2.485 3 4 C2.01 4 1.02 4 0 4 C-0.33 3.01 -0.66 2.02 -1 1 C-0.67 0.67 -0.34 0.34 0 0 Z " fill="#C7A256" transform="translate(150,74)"/>
</svg>
