<?xml version="1.0" ?>
<!-- Uploaded to: SVG Repo, www.svgrepo.com, Generator: SVG Repo Mixer Tools -->
<svg width="800px" height="800px" viewBox="0 0 50 50" id="Message_And_Communication_Icons" version="1.1" xml:space="preserve" xmlns="http://www.w3.org/2000/svg" xmlns:xlink="http://www.w3.org/1999/xlink">
<g>
<g>
<g>
<polygon points="38.5,14.4 38.5,32.7 11.1,32.7 11.1,39.6 15.6,35.6 43,35.6 43,14.4    " style="fill:#4DE0F9;"/>
</g>
</g>
<g>
<g>
<path d="M7.9,41.1V12.6h34.6V35H14.7L7.9,41.1z M9.1,13.8v24.6l5.1-4.6h27v-20H9.1z" style="fill:#0D5FC3;"/>
</g>
</g>
<g>
<g>
<g>
<path d="M32.1,19.7c-0.6-0.6-1.3-0.9-2.1-1c0.8,1.4,0.6,3.1-0.6,4.3l-5.7,5.7l2.2,2.2l0,0l0,0l6.1-6.1      C33.5,23.4,33.5,21.1,32.1,19.7z" style="fill:#4DE0F9;"/>
</g>
</g>
</g>
<g>
<g>
<path d="M25.1,30.8l-0.4-0.4l-6.1-6.1c-1.6-1.6-1.6-4.3,0-6c1.6-1.6,4.3-1.6,6,0l0.6,0.6l0.6-0.6     c1.6-1.6,4.3-1.6,6,0v0c1.6,1.6,1.6,4.3,0,6L25.1,30.8z M25,29.1L25,29.1l5.7-5.7c1.2-1.2,1.2-3.1,0-4.3c-1.2-1.2-3.1-1.2-4.3,0     L25,20.6l-1.4-1.4c-1.2-1.2-3.1-1.2-4.3,0c-1.2,1.2-1.2,3.1,0,4.3L25,29.1z" style="fill:#0D5FC3;"/>
</g>
</g>
</g>
</svg>